<svg version="1.1" id="Layer_1" xmlns="http://www.w3.org/2000/svg" xmlns:xlink="http://www.w3.org/1999/xlink" x="0px" y="0px"
	 width="300px" height="300px" class="dodgecoin" viewBox="0 0 300 300" enable-background="new 0 0 300 300" xml:space="preserve">

<g>
	<path fill="#988430" d="M136.42,4.64c31-2.98,62.93,4.23,89.53,20.46c25.069,15.1,45.37,37.93,57.479,64.57
		c12.801,27.84,16.2,59.75,10.19,89.75c-5.99,30.09-21.91,58.061-44.59,78.72c-22.69,20.95-52.23,34.301-82.95,37.561
		c-19.82,1.85-40.07,0.359-59.1-5.681c-32.54-9.979-61.25-31.819-79.63-60.47c-15.46-23.79-23.68-52.21-23.29-80.59
		C4.14,116.51,15.66,84.27,35.99,59C60.32,28.31,97.39,8.16,136.42,4.64L136.42,4.64z"/>
	<path fill="#7A6A2A" d="M147.39,8.53c26-0.45,52.16,6.18,74.58,19.43c24.181,14.2,44.07,35.71,56.101,61.06
		c12.989,26.44,16.819,57.06,11.77,86.01c-6.62,38.79-30.47,74.18-63.82,95.029c-23.09,14.801-50.659,22.471-78.06,21.87
		c-26.76-0.18-53.31-8.52-75.61-23.26c-22.83-15.06-41.32-36.75-52.09-61.93c-12.42-28.34-15.06-60.81-7.5-90.81
		c7.38-30.38,25.47-57.86,50.02-77.14C86.67,19.8,116.91,9.15,147.39,8.53L147.39,8.53z"/>
	<path fill="#BA9F33" d="M93.54,23.61c24.42-11.07,52.11-14.58,78.57-10.4c27.63,4.3,53.79,17.32,73.97,36.67
		c24.689,23.4,40.26,56.15,42.6,90.1c3.08,38.71-11.109,78.42-38.21,106.25c-0.38-8.07-0.5-16.15-0.649-24.23
		c-0.061-5.99-1.391-11.85-1.9-17.79c0.11-2.08,0.35-4.15,0.42-6.22c0.29-5.61-2.68-10.84-1.92-16.49
		c0.74-7.94-3.42-15.14-5.479-22.58c-2.051-5.229-1.921-10.98-3.91-16.22c-1.431-20.24-9.271-40.67-24.63-54.42
		c0.5-0.7,1.479-2.12,1.979-2.83c0.61,1.32,1.3,2.59,1.99,3.86c3.57-4.04,4.12-9.6,5.18-14.66c1.99-9.02,0.61-18.34-0.93-27.31
		c-1.19-4.6-2.14-9.93-5.99-13.11c-4.11-2.42-11.229-2.46-13.62,2.34c-0.08,0.28-0.24,0.84-0.319,1.11
		c-1.79,3.11-4.271,5.8-7.381,7.61c-5.52,3.4-8.529,9.85-14.43,12.83c-3.68,1.2-7.42-0.84-11.17-0.42
		c-7.06,0.73-14.229,1.1-21.09,3.07c-6.49-1.03-13.01-2.06-19.46-3.36c0.02-0.47,0.07-1.4,0.1-1.87c-2.95-2.86-5.64-6.12-6.71-10.17
		c-1.97-7.54-6.62-14.8-13.63-18.5c-0.99-0.39-1.98-0.77-2.97-1.13c-0.62,0.68-1.22,1.37-1.81,2.06c-0.23,0.53-0.69,1.59-0.92,2.11
		c-1.56,3.49-1.21,7.38-1.32,11.1c-0.1,9.61-1.1,19.45-5.16,28.28c-6.54-0.02-13.07-0.07-19.6,0.01c-1.3,2.94-0.84,6.2-0.91,9.31
		c-10.51,9.73-14.71,24.07-16.67,37.82c-0.01,1.06,0.03,2.13,0.12,3.19c0.02,0.42,0.05,1.26,0.07,1.67
		c-4.62,6.09-5.43,14.05-6.62,21.36c1.69-0.1,3.38-0.2,5.08-0.27c-1.56,0.17-3.12,0.32-4.67,0.47c-0.3,1.67-0.54,3.34-0.73,5.02
		c1.52-0.56,3.03-1.14,4.55-1.7l0.82,0.04c-1.81,0.74-3.58,1.6-5.34,2.47c0.04,1.06,0.12,3.19,0.15,4.25
		c2.06-1.06,4.14-2.06,6.2-3.12l-0.75,0.84c-1.75,1.14-3.99,1.75-5.37,3.369c0.04,3.841,0.58,7.66,1.1,11.461
		c1.35,8.64,4.38,17.05,8.81,24.59c-0.13,5.51-1.32,11.06-4.57,15.609c0.91,1.721,2.43,3.311,2.52,5.33
		c-0.57,3.431-3.33,6.33-2.75,9.971c0.74,8.829-2.5,17.26-6.33,25.029c-19.87-20.649-33-47.67-36.97-76.06
		c-3.77-26.5,0.18-54.11,11.61-78.35C38.37,61.64,63.37,37.03,93.54,23.61L93.54,23.61z"/>
	<path fill="#C79C3B" d="M102.14,27.8c0.59-0.69,1.19-1.38,1.81-2.06c0.99,0.36,1.98,0.74,2.97,1.13c1.67,5.25,4.26,10.5,3.73,16.16
		c-0.19,3.78-1.01,7.84,0.89,11.36c0.82,2,2.81,3.04,4.5,4.19c-1.02,0.79-2.03,1.58-3.1,2.29c-4.42,1.76-7.94,5.04-11.25,8.35
		c-1.28,0-2.56,0.01-3.84,0.01c7-8.41,10.09-19.49,10.06-30.31C108.05,34.43,104.61,31.15,102.14,27.8L102.14,27.8z"/>
	<path fill="#B58634" d="M106.92,26.87c7.01,3.7,11.66,10.96,13.63,18.5c1.07,4.05,3.76,7.31,6.71,10.17
		c-0.03,0.47-0.08,1.4-0.1,1.87c-3.66-1.2-8.16-1.96-11.12,1.17c-1.69-1.15-3.68-2.19-4.5-4.19c-1.9-3.52-1.08-7.58-0.89-11.36
		C111.18,37.37,108.59,32.12,106.92,26.87L106.92,26.87z"/>
	<path fill="#DFC068" d="M102.14,27.8c2.47,3.35,5.91,6.63,5.77,11.12c0.03,10.82-3.06,21.9-10.06,30.31
		c-0.48,0.01-1.43,0.03-1.91,0.03c3.03-4.64,6.04-9.67,6.36-15.36c0.57-8.03-1.9-15.94-1.08-23.99
		C101.45,29.39,101.91,28.33,102.14,27.8L102.14,27.8z"/>
	<path fill="#A78F33" d="M99.9,41.01c0.11-3.72-0.24-7.61,1.32-11.1c-0.82,8.05,1.65,15.96,1.08,23.99
		c-0.32,5.69-3.33,10.72-6.36,15.36l-1.2,0.03C98.8,60.46,99.8,50.62,99.9,41.01L99.9,41.01z"/>
	<path fill="#A17C34" d="M201.01,36.57c2.391-4.8,9.51-4.76,13.62-2.34c3.851,3.18,4.8,8.51,5.99,13.11
		c1.54,8.97,2.92,18.29,0.93,27.31c-1.06,5.06-1.609,10.62-5.18,14.66c-0.69-1.27-1.38-2.54-1.99-3.86c-0.68-1.98-1.25-4-1.89-6
		c2.46-5.49,3.71-11.49,4.359-17.45c0.591-5.32-2.949-9.7-6.479-13.2C208.5,43.86,204.71,40.18,201.01,36.57L201.01,36.57z"/>
	<path fill="#B89844" d="M200.69,37.68c0.079-0.27,0.239-0.83,0.319-1.11c3.7,3.61,7.49,7.29,9.36,12.23
		c-0.101,1.45-0.43,3.03-1.95,3.59c-4.33,2.19-9.18,3.78-12.35,7.67c-2.17,2.75-6.4,4.32-6.74,8.15c0.46,0.34,1.38,1.01,1.84,1.35
		c-0.43,0.56-1.28,1.68-1.71,2.24c0.55,0.57,1.11,1.13,1.67,1.69c2.311-2.41,5.86-2.62,8.851-3.68c-0.471,1.16-0.94,2.33-1.41,3.5
		c1.27-0.28,2.56-0.56,3.84-0.82c-1.58,1.81-3.351,3.45-5.21,4.979c-0.21-0.12-0.63-0.34-0.84-0.45c-2.28-1.13-4.5-2.65-7.12-2.75
		c-0.13-0.39-0.38-1.15-0.51-1.54c-1.44-0.08-2.87-0.35-4.23-0.81c0.38-0.95,1.14-2.84,1.52-3.78c-0.789,0.38-2.38,1.15-3.17,1.53
		c2.15-3.53,4.24-7.1,6.341-10.66c0.149-0.26,0.449-0.78,0.6-1.04c2.89-5.36,7.14-9.83,10.05-15.16
		C200.86,41.27,200.82,39.44,200.69,37.68L200.69,37.68z"/>
	<path fill="#CBA94C" d="M200.69,37.68c0.13,1.76,0.17,3.59-0.851,5.13c-2.91,5.33-7.16,9.8-10.05,15.16
		c-0.05-4.5,0.54-9.1,3.52-12.68C196.42,43.48,198.9,40.79,200.69,37.68L200.69,37.68z"/>
	<path fill="#AC8132" d="M178.88,58.12c5.9-2.98,8.91-9.43,14.43-12.83c-2.979,3.58-3.569,8.18-3.52,12.68
		c-0.15,0.26-0.45,0.78-0.6,1.04c0.119-1.73-0.051-3.45-0.301-5.16c-2.79,5.76-5.859,11.42-10.08,16.28
		c-2.439-0.66-4.97-0.9-7.5-0.9c1.4-2.68,3.2-5.12,5.101-7.45c-9.8-2.3-19.88-0.07-29.79-1.01c6.86-1.97,14.03-2.34,21.09-3.07
		C171.46,57.28,175.2,59.32,178.88,58.12L178.88,58.12z"/>
	<path fill="#927238" d="M210.37,48.8c3.53,3.5,7.07,7.88,6.479,13.2c-0.649,5.96-1.899,11.96-4.359,17.45
		c-1.811,1.48-3.69,2.88-5.55,4.31c-0.881-0.65-1.78-1.29-2.671-1.93l-0.439-0.3c2.86-6.15,7.479-11.93,7.78-18.92
		c-5.45,0.2-10.9,1.09-16.091,2.75c-2.14,0.53-3.229,2.5-4.35,4.2c-0.46-0.34-1.38-1.01-1.84-1.35c0.34-3.83,4.57-5.4,6.74-8.15
		c3.17-3.89,8.02-5.48,12.35-7.67C209.94,51.83,210.27,50.25,210.37,48.8L210.37,48.8z"/>
	<path fill="#8C6228" d="M188.89,53.85c0.25,1.71,0.42,3.43,0.301,5.16c-2.101,3.56-4.19,7.13-6.341,10.66
		c0.79-0.38,2.381-1.15,3.17-1.53c-0.38,0.94-1.14,2.83-1.52,3.78c-1.89-0.64-3.77-1.28-5.69-1.79
		C183.03,65.27,186.1,59.61,188.89,53.85L188.89,53.85z"/>
	<path fill="#D2A83E" d="M116.04,58.58c2.96-3.13,7.46-2.37,11.12-1.17c6.45,1.3,12.97,2.33,19.46,3.36
		c9.91,0.94,19.99-1.29,29.79,1.01c-1.9,2.33-3.7,4.77-5.101,7.45c-16.029-0.02-32.069,0.07-48.1,0.01
		c-0.67-2.28-0.76-5.12-2.86-6.64c-2.14-1.54-4.91-1.45-7.41-1.73C114.01,60.16,115.02,59.37,116.04,58.58L116.04,58.58z"/>
	<path fill="#DCBA5A" d="M101.69,69.22c3.31-3.31,6.83-6.59,11.25-8.35c2.5,0.28,5.27,0.19,7.41,1.73c2.1,1.52,2.19,4.36,2.86,6.64
		C116.04,69.22,108.86,69.23,101.69,69.22L101.69,69.22z"/>
	<path fill="#543E26" d="M195.52,65.36c5.19-1.66,10.641-2.55,16.091-2.75c-0.301,6.99-4.92,12.77-7.78,18.92
		c-2.12-1.5-4.34-2.84-6.63-4.06c1.859-1.53,3.63-3.17,5.21-4.979c-1.28,0.26-2.57,0.54-3.84,0.82c0.47-1.17,0.939-2.34,1.41-3.5
		c-2.99,1.06-6.54,1.27-8.851,3.68c-0.56-0.56-1.12-1.12-1.67-1.69c0.43-0.56,1.28-1.68,1.71-2.24
		C192.29,67.86,193.38,65.89,195.52,65.36L195.52,65.36z"/>
	<path fill="#F3EBDB" d="M75.14,69.3c6.53-0.08,13.06-0.03,19.6-0.01l1.2-0.03c0.48,0,1.43-0.02,1.91-0.03
		c1.28,0,2.56-0.01,3.84-0.01c7.17,0.01,14.35,0,21.52,0.021c16.03,0.06,32.07-0.03,48.1-0.01c2.53,0,5.061,0.24,7.5,0.9
		c1.921,0.51,3.801,1.15,5.69,1.79c1.36,0.46,2.79,0.73,4.23,0.81c0.13,0.39,0.38,1.15,0.51,1.54c2.62,0.1,4.84,1.62,7.12,2.75
		c-1.48,3.82-4.49,6.64-7.28,9.51c2.45,1.36,4.88,2.78,7.11,4.49c2.85-2.92,5.479-6.05,8.079-9.19c0.891,0.64,1.79,1.28,2.671,1.93
		c1.89,1.42,3.72,2.92,5.46,4.52c15.359,13.75,23.199,34.18,24.63,54.42c0.189,2.65,0.229,5.31,0.31,7.96
		c-0.06,10.53-1.01,21.13-3.77,31.32c-1.91,7.069-4.62,13.949-8.33,20.27c-2.601,4.01-5.391,7.93-8.75,11.35
		c-2.181,2.28-4.471,4.471-7.01,6.36c-1.141-0.59-2.271-1.17-3.41-1.75c-1.94,1.08-3.74,2.79-6.08,2.84
		c-3.141,0.21-6.05,1.58-9.141,2.12c3-4.479,9.131-7.84,8.141-14.04c-1.69,0.08-3.37,0.16-5.05,0.24
		c0.569-2.17,1.119-4.36,1.64-6.55c-0.561-0.37-1.66-1.11-2.21-1.48c1.89-2.109,3.82-4.21,5.6-6.43c-3.8,0.87-7.229,2.75-10.83,4.17
		c6.9-10.05,12.971-20.69,18.051-31.771c2.899-6.869,6.77-13.68,6.859-21.34c0.26-4.89-2.87-9.12-3.02-13.97
		c-0.431-5.58-0.42-12.04-5.05-16.01c-7.99,1.64-16.08,0.11-24.051-0.82c-2.14-0.31-4.29,0.06-6.399,0.41
		c-0.37-0.45-0.761-0.87-1.15-1.29c-2.479-2.49-5.1-5.09-8.49-6.26c-3.12-0.51-6.29-0.1-9.43-0.07l-0.43-0.11
		c-3.471-1.51-7.08-3.48-11-2.78c-3.26,0.34-5.2,3.3-7.8,4.93c-2.68,1.7-5.34,3.48-7.37,5.96c2.68,4.58,7.49,7.09,12.47,8.38
		c-0.17,2.99-0.4,5.97-0.66,8.95c-3.06,1.02-5.92,2.54-8.55,4.4c-1.4-3.03-2.06-6.34-3.41-9.38c-1.44-1.92-3.44-3.33-5.25-4.88
		c-0.42,1.29-0.83,2.59-1.25,3.89c-0.92,0.48-1.84,0.97-2.76,1.46c-0.13-2.26-0.19-4.53-0.6-6.76c-0.9-4.05-3.79-7.25-5.32-11.04
		c0.25-3.88,1.43-7.66,1.53-11.56c-1.94,0.78-3.91,1.49-5.81,2.35c-2.6,1.03-3.88,3.77-6.11,5.3c-2.17,0.96-4.53,1.32-6.81,1.92
		l0.29-0.83c2.03-1.78,2.61-4.4,3.12-6.92c-1.29,0.62-2.57,1.24-3.85,1.87c-1.61-2.26,0.84-3.78,2.24-5.26
		c-2.07-1.92-4.86-3.41-7.73-2.37c-4.81,1.68-6.93,7.02-7.42,11.72c-1.97,0.05-3.94,0.14-5.91,0.1c0.77-1.42,1.53-2.84,2.31-4.26
		c-0.97-2.15-3.15-2.96-5.22-3.67c0.11-5.36,0.02-10.71,0.01-16.06c0.02-1.57,0.06-3.13,0.06-4.7C74.3,75.5,73.84,72.24,75.14,69.3
		L75.14,69.3z"/>
	<path fill="#DCDAD7" d="M196.36,77.02c0.21,0.11,0.63,0.33,0.84,0.45c2.29,1.22,4.51,2.56,6.63,4.06l0.439,0.3
		c-2.6,3.14-5.229,6.27-8.079,9.19c-2.23-1.71-4.66-3.13-7.11-4.49C191.87,83.66,194.88,80.84,196.36,77.02L196.36,77.02z"/>
	<path fill="#A78E32" d="M57.56,116.43c1.96-13.75,6.16-28.09,16.67-37.82c0,1.57-0.04,3.13-0.06,4.7
		c-6.96,7.29-10.98,17.01-12.88,26.8c-0.74,3.33-2.23,6.42-3.61,9.51C57.59,118.56,57.55,117.49,57.56,116.43L57.56,116.43z"/>
	<path fill="#B59544" d="M206.94,83.76c1.859-1.43,3.739-2.83,5.55-4.31c0.64,2,1.21,4.02,1.89,6c-0.5,0.71-1.479,2.13-1.979,2.83
		C210.66,86.68,208.83,85.18,206.94,83.76L206.94,83.76z"/>
	<path fill="#EBCC73" d="M61.29,110.11c1.9-9.79,5.92-19.51,12.88-26.8c0.01,5.35,0.1,10.7-0.01,16.06
		c-3.3,2.81-4.77,7.43-9.02,9.12c-0.57,2.92-1.73,5.68-3.45,8.11c-1.25,1.62-2.61,3.14-3.94,4.69c-0.02-0.41-0.05-1.25-0.07-1.67
		C59.06,116.53,60.55,113.44,61.29,110.11L61.29,110.11z"/>
	<path fill="#D7D7D5" d="M90.4,95.48c2.87-1.04,5.66,0.45,7.73,2.37c-1.4,1.48-3.85,3-2.24,5.26c1.28-0.63,2.56-1.25,3.85-1.87
		c-0.51,2.52-1.09,5.14-3.12,6.92c-2.62-0.38-5.28-0.42-7.91-0.14c0.16-1.57,0.27-3.16,0.66-4.69c1.2-1.3,2.93-1.86,4.45-2.65
		c-0.92-0.93-1.66-2.13-2.86-2.71c-2.87,0.771-5.74,2.95-6.17,6.05c0.07,1.42,0.3,2.83,0.51,4.25c-0.47-0.02-1.42-0.06-1.89-0.07
		l-0.59-0.02l0.16-0.98C83.47,102.5,85.59,97.16,90.4,95.48L90.4,95.48z"/>
	<path fill="#E6DED7" d="M209.45,97.42c2.43-0.84,4.88-1.63,7.35-2.33c1.851,3.71,1.23,7.74-0.649,11.29
		c0.899,0,1.81,0.01,2.72,0.02c0.16,3.12,0.12,7.49-3.55,8.51c-2.03-4.47-6.88-7.07-8.12-11.98
		C207.35,100.91,208.58,99.19,209.45,97.42L209.45,97.42z"/>
	<path fill="#F5F2E6" d="M84.79,104.02c0.43-3.1,3.3-5.28,6.17-6.05c1.2,0.58,1.94,1.78,2.86,2.71c-1.52,0.79-3.25,1.35-4.45,2.65
		c-0.39,1.53-0.5,3.12-0.66,4.69c-0.85,0.06-2.56,0.18-3.41,0.25C85.09,106.85,84.86,105.44,84.79,104.02L84.79,104.02z"/>
	<path fill="#F8F3E4" d="M109.25,101.77c1.9-0.86,3.87-1.57,5.81-2.35c-0.1,3.9-1.28,7.68-1.53,11.56
		c1.53,3.79,4.42,6.99,5.32,11.04c0.41,2.23,0.47,4.5,0.6,6.76c0.92-0.49,1.84-0.98,2.76-1.46c0.42-1.3,0.83-2.6,1.25-3.89
		c1.81,1.55,3.81,2.96,5.25,4.88c1.35,3.04,2.01,6.35,3.41,9.38c2.63-1.86,5.49-3.38,8.55-4.4c0.26-2.98,0.49-5.96,0.66-8.95
		c0.01-0.32,0.02-0.96,0.03-1.28c-1.77-1.48-4.55-2.43-4.79-5.07c-0.22-3.36,1.9-6.28,4.27-8.43c0.66,0.14,1.33,0.3,2.01,0.4
		c1.29-0.1,1.92-0.86,1.88-2.3c1.73-0.07,3.46,0.01,5.19,0.11c-1.75,2.42-3.98,4.67-7.05,5.18c-0.01,1.62,0.03,3.24,0.12,4.86
		c-0.1,1.63-0.271,3.26-0.37,4.89l-0.03,1.12c0.02,3.85,0.02,7.71,0.05,11.56c0.02,19.25-0.07,38.49,0.04,57.74
		c0.09,0.37,0.28,1.12,0.38,1.49c8.67-0.58,18.54,2.14,26.06-3.511c10.54-7.569,14.87-20.81,15.96-33.239
		c1.229-14.67-1.39-30.37-10.55-42.28c2.109-0.35,4.26-0.72,6.399-0.41c7.971,0.93,16.061,2.46,24.051,0.82
		c4.63,3.97,4.619,10.43,5.05,16.01c0.149,4.85,3.279,9.08,3.02,13.97c-0.09,7.66-3.96,14.471-6.859,21.34
		c-5.08,11.08-11.15,21.721-18.051,31.771c3.601-1.42,7.03-3.3,10.83-4.17c-1.779,2.22-3.71,4.32-5.6,6.43
		c0.55,0.37,1.649,1.11,2.21,1.48c-0.521,2.189-1.07,4.38-1.64,6.55c1.68-0.08,3.359-0.16,5.05-0.24
		c0.99,6.2-5.141,9.561-8.141,14.04c3.091-0.54,6-1.91,9.141-2.12c2.34-0.05,4.14-1.76,6.08-2.84c1.14,0.58,2.27,1.16,3.41,1.75
		c-12.08,9.18-27.311,14.13-42.48,13.79c-13.2-0.04-26.4,0.06-39.6-0.05c-5.72,0.02-11.45,0.01-17.17,0.02
		c-4.2,0-8.41,0-12.61,0.021c-1.23-0.01-2.46-0.021-3.69-0.021c-5.61-0.02-11.23,0.2-16.83-0.04c-1.97,0.16-2.76-2.029-2.77-3.63
		c-0.25-4.45-0.02-8.899-0.09-13.35c0.05-5.08,0.08-10.17-0.05-15.25c-0.02-2.22,0.33-4.4,0.85-6.55
		c7.06-0.721,14.15,0.199,21.23-0.29c0-2.42,0.01-4.841,0.01-7.25c0-1.86,0-3.721,0.02-5.57c0.43,1.62,0.96,3.21,1.48,4.81
		c3.34-0.619,7.05-1.47,9.57,1.49c5.89-5.22,14.57-4.97,21.61-7.859c1.53-3.98,5.1-7.19,4.63-11.78c-0.28-0.061-0.86-0.19-1.14-0.26
		c-7.37-2.32-14.26,2.449-21.46,3c-4.79-0.45-9.41-2.771-12.49-6.48c0.26-1.06,0.55-2.12,0.83-3.17c-0.71-0.59-1.42-1.18-2.13-1.771
		c-0.08-2.14-0.11-4.279,0.01-6.409c0.65-2.521,2.33-4.49,4.64-5.65c0.74-3.78,1.35-7.58,2.01-11.37c-1.97-2.49-4.63-4.23-7.59-5.32
		v-0.29c-0.02-2.54-0.02-5.07,0-7.61c0.05-4.38,0-8.76-0.02-13.14c0.02-0.25,0.06-0.75,0.08-0.99c2.28-0.6,4.64-0.96,6.81-1.92
		C105.37,105.54,106.65,102.8,109.25,101.77L109.25,101.77z"/>
	<path fill="#F4EFC8" d="M65.14,108.49c4.25-1.69,5.72-6.31,9.02-9.12c0.04,2.52,0.09,5.04,0.16,7.56c0.69,0.09,2.06,0.28,2.75,0.37
		c1.97,0.04,3.94-0.05,5.91-0.1l-0.16,0.98c-2.69-0.05-5.38-0.06-8.07-0.11c-0.33,1.51-0.56,3.03-0.64,4.57
		c-5.25,2.04-8.4,6.86-12.69,10.21c0.04-2.09,0.09-4.17,0.27-6.25C63.41,114.17,64.57,111.41,65.14,108.49L65.14,108.49z"/>
	<path fill="#FCFCF4" d="M74.16,99.37c2.07,0.71,4.25,1.52,5.22,3.67c-0.78,1.42-1.54,2.84-2.31,4.26
		c-0.69-0.09-2.06-0.28-2.75-0.37C74.25,104.41,74.2,101.89,74.16,99.37L74.16,99.37z"/>
	<path fill="#D7D7D5" d="M136.23,110c2.6-1.63,4.54-4.59,7.8-4.93c3.92-0.7,7.53,1.27,11,2.78c-1.71-0.04-3.41-0.01-5.11-0.08
		c-1.73-0.1-3.46-0.18-5.19-0.11c-1.41,0.08-2.04,0.85-1.88,2.3c-0.68-0.1-1.35-0.26-2.01-0.4c-2.37,2.15-4.49,5.07-4.27,8.43
		c0.24,2.64,3.02,3.59,4.79,5.07c-0.01,0.32-0.02,0.96-0.03,1.28c-4.98-1.29-9.79-3.8-12.47-8.38
		C130.89,113.48,133.55,111.7,136.23,110L136.23,110z"/>
	<path fill="#E5C66B" d="M74.75,108.07c2.69,0.05,5.38,0.06,8.07,0.11l0.59,0.02c1.07,2.13,2.55,4.03,4.66,5.22
		c0.65,0.51,1.29,1.04,1.92,1.58c-2.1,3.22-5.18,5.77-6.69,9.37c-1.5,0.61-2.98,1.26-4.49,1.81c-0.32-0.21-0.96-0.62-1.28-0.83
		c0.31-0.53,0.91-1.58,1.21-2.11c-1.14-0.271-2.29-0.54-3.43-0.81c-0.6-3.24-1.03-6.5-1.2-9.79
		C74.19,111.1,74.42,109.58,74.75,108.07L74.75,108.07z"/>
	<path fill="#242110" d="M83.41,108.2c0.47,0.01,1.42,0.05,1.89,0.07c-0.24,4.04,4.38,3.57,7.08,3.15c-1.21-1.16-2.42-2.3-3.67-3.4
		c2.63-0.28,5.29-0.24,7.91,0.14l-0.29,0.83c-0.02,0.24-0.06,0.74-0.08,0.99c-2.99,0.61-4.99,3.75-8.18,3.44
		C85.96,112.23,84.48,110.33,83.41,108.2L83.41,108.2z"/>
	<path fill="#938357" d="M85.3,108.27c0.85-0.07,2.56-0.19,3.41-0.25c1.25,1.1,2.46,2.24,3.67,3.4
		C89.68,111.84,85.06,112.31,85.3,108.27L85.3,108.27z"/>
	<path fill="#CDBD83" d="M142.85,109.96c-0.16-1.45,0.47-2.22,1.88-2.3C144.77,109.1,144.14,109.86,142.85,109.96L142.85,109.96z"/>
	<path fill="#252211" d="M149.92,107.77c1.7,0.07,3.4,0.04,5.11,0.08l0.43,0.11c2.23,1.43,4.43,2.97,6.26,4.92
		c-2.109,4.52-5.859,8.33-10.5,10.24c-2.79,0.84-5.76,0.56-8.63,0.7l0.03-1.12c2.16-0.02,4.32-0.1,6.49-0.22
		c-2.38-1.08-4.67-2.43-6.12-4.67c-0.09-1.62-0.13-3.24-0.12-4.86C145.94,112.44,148.17,110.19,149.92,107.77L149.92,107.77z"/>
	<path fill="#D2B257" d="M155.46,107.96c3.14-0.03,6.31-0.44,9.43,0.07c3.391,1.17,6.011,3.77,8.49,6.26
		c-3.2,3.31-5.29,7.43-8.03,11.08c-2.71,3.73-7.59,4.37-11.409,6.47c-3.511,1.9-7.3,3.23-11.3,3.54c-0.03-3.85-0.03-7.71-0.05-11.56
		c2.87-0.14,5.84,0.14,8.63-0.7c4.641-1.91,8.391-5.72,10.5-10.24C159.89,110.93,157.69,109.39,155.46,107.96L155.46,107.96z"/>
	<path fill="#E6BD62" d="M88.07,113.42c3.19,0.31,5.19-2.83,8.18-3.44c0.02,4.38,0.07,8.76,0.02,13.14
		c-2.4,0.59-4.91,1.87-7.38,0.94c-1.86-0.74-3.8-0.53-5.59,0.31c1.51-3.6,4.59-6.15,6.69-9.37
		C89.36,114.46,88.72,113.93,88.07,113.42L88.07,113.42z"/>
	<path fill="#696148" d="M150.31,110.31C153.55,110.58,148.63,113.32,150.31,110.31L150.31,110.31z"/>
	<path fill="#F4ECB4" d="M61.42,122.85c4.29-3.35,7.44-8.17,12.69-10.21c0.17,3.29,0.6,6.55,1.2,9.79c1.14,0.27,2.29,0.54,3.43,0.81
		c-0.3,0.53-0.9,1.58-1.21,2.11c-3.39,2.57-7.79,4.48-9.46,8.69c-1.9,5.16-1.71,10.76-2.42,16.15c-1.23-1.221-3.07-2.23-2.96-4.221
		c-0.26-4.05,0.81-8.03,1.05-12.05c-1.87,2.72-3,5.84-4.12,8.92c-0.51,1.94-2.78,2.36-4.26,3.33c-1.52,0.56-3.03,1.14-4.55,1.7
		c0.19-1.68,0.43-3.35,0.73-5.02c1.55-0.15,3.11-0.3,4.67-0.47c-1.7,0.07-3.39,0.17-5.08,0.27c1.19-7.31,2-15.27,6.62-21.36
		c1.33-1.55,2.69-3.07,3.94-4.69C61.51,118.68,61.46,120.76,61.42,122.85L61.42,122.85z"/>
	<path fill="#71694F" d="M151.29,114.07C154.32,112.64,151.6,117.33,151.29,114.07L151.29,114.07z"/>
	<path fill="#DFCD88" d="M173.38,114.29c0.39,0.42,0.78,0.84,1.15,1.29c9.16,11.91,11.779,27.61,10.55,42.28
		c-1.57,0.85-3.17,1.659-4.65,2.67c-2.54,1.739-3.93,4.699-6.47,6.439c-4.45,2.221-10.05,1.69-14.01,4.96
		c-2.26,2.561-3.8,5.71-6.44,7.94c1.41,1.43,2.931,2.76,4.23,4.3c0.68,1.19,0.43,2.72,1.109,3.92c1.271,1.021,2.721,1.8,4.11,2.66
		c-3.6,0.54-7.25,0.41-10.86-0.07c-3.37-0.64-6.41,1.271-9.419,2.44c-0.11-19.25-0.02-38.49-0.04-57.74c4-0.31,7.79-1.64,11.3-3.54
		c3.819-2.1,8.699-2.74,11.409-6.47C168.09,121.72,170.18,117.6,173.38,114.29L173.38,114.29z"/>
	<path fill="#DFCD88" d="M142.99,117.81c1.45,2.24,3.74,3.59,6.12,4.67c-2.17,0.12-4.33,0.2-6.49,0.22
		C142.72,121.07,142.89,119.44,142.99,117.81L142.99,117.81z"/>
	<path fill="#DFC57C" d="M83.3,124.37c1.79-0.84,3.73-1.05,5.59-0.31c2.47,0.93,4.98-0.35,7.38-0.94c-0.02,2.54-0.02,5.07,0,7.61
		c-4.77-1.68-9.74-3-14.85-2.72c-0.87-0.62-1.74-1.23-2.61-1.83C80.32,125.63,81.8,124.98,83.3,124.37L83.3,124.37z"/>
	<path fill="#F3E19D" d="M68.07,134.04c1.67-4.21,6.07-6.12,9.46-8.69c0.32,0.21,0.96,0.62,1.28,0.83c0.87,0.6,1.74,1.21,2.61,1.83
		c-4.56,0.15-9.06,3.09-9.6,7.89c-0.79,6.1-2.9,11.95-3.47,18.07c-0.6,4.4,3.46,7.28,4.73,11.12c0.39,2.09,0.52,4.22,1.05,6.28
		c-0.61,2.67-1.14,5.36-1.56,8.06c-0.89,0.021-1.79,0.051-2.68,0.08c-0.94,2.181-2.07,4.3-2.78,6.58
		c0.81,4.391,2.25,8.66,3.26,13.021c-0.2,0.489-0.61,1.479-0.81,1.97c-2.18-2.37-3.42-5.68-6.3-7.32
		c-0.74-1.25-1.54-2.45-2.28-3.689c-4.43-7.54-7.46-15.95-8.81-24.59c0.41-2.551,0.9-5.091,1.32-7.631
		c1.84,3.65,1.64,8.101,4.1,11.431c1.67-0.44,3.35-0.851,5.05-1.15l0.84,1c1.76-2.55,3.42-5.29,3.74-8.45
		c-1.15,1.561-2.22,3.181-3.19,4.86c-1.4-2.2-3.06-4.3-3.87-6.8c-0.45-2.891-0.35-5.82-0.58-8.721c-1.05,0.2-2.09,0.4-3.14,0.631
		l0.75-0.84c0.93-1.04,1.82-2.11,2.72-3.17c-1.24-0.16-2.48-0.36-3.73-0.43l-0.82-0.04c1.48-0.97,3.75-1.39,4.26-3.33
		c1.12-3.08,2.25-6.2,4.12-8.92c-0.24,4.02-1.31,8-1.05,12.05c-0.11,1.99,1.73,3,2.96,4.221C66.36,144.8,66.17,139.2,68.07,134.04
		L68.07,134.04z"/>
	<path fill="#252211" d="M71.82,135.9c0.54-4.8,5.04-7.74,9.6-7.89c5.11-0.28,10.08,1.04,14.85,2.72v0.29
		c0.03,4.47-0.03,8.93,0.02,13.4l-0.01,0.83c-1.5,1.46-2.92,3.01-4.36,4.54c-2.44,2.08-5.57,2.91-8.61,3.69
		c-0.14,0.649-0.42,1.949-0.56,2.6c-0.16,0.72-0.47,2.17-0.63,2.89c-4.29-3.979-6.8-9.32-9.65-14.32
		C70.88,141.99,71.49,138.79,71.82,135.9L71.82,135.9z"/>
	<path fill="#DFDDD9" d="M96.27,131.02c2.96,1.09,5.62,2.83,7.59,5.32c-0.66,3.79-1.27,7.59-2.01,11.37
		c-2.31,1.16-3.99,3.13-4.64,5.65c0.16-3.021-0.33-6-0.92-8.94C96.24,139.95,96.3,135.49,96.27,131.02L96.27,131.02z"/>
	<path fill="#D6D6D5" d="M28.25,132.3c3.19-0.41,6.42-0.06,9.62-0.25l-1.41,1.79c4.96-0.37,10.01-0.01,14.8,1.38
		c-4.39-0.88-8.85-1.56-13.33-1.22c-1.66,0.19-3.14-0.58-4.5-1.42C31.82,132.45,29.27,134.2,28.25,132.3L28.25,132.3z"/>
	<path fill="#6E6342" d="M68.35,153.97c0.57-6.12,2.68-11.97,3.47-18.07c-0.33,2.89-0.94,6.09,0.65,8.75
		c2.85,5,5.36,10.34,9.65,14.32c0.16-0.72,0.47-2.17,0.63-2.89c1.57,0.07,3.14,0.16,4.72,0.26c2.2,1.78,4.57,3.38,6.47,5.51
		c2.05-3.899-0.84-7.72-0.45-11.729c-0.39-0.08-1.18-0.25-1.57-0.33c1.44-1.53,2.86-3.08,4.36-4.54
		c-0.02,6.81,0.01,13.63,0.01,20.44c-7.7-2.4-15.92-5.19-23.97-2.61c7.53,3.439,16.02,3.71,23.96,5.79c0,2.25-0.02,4.5-0.04,6.75
		c-3.67,1.649-7.01,3.93-10.58,5.78c-3.72-2.5-6.43-6.17-10.12-8.71c-0.35-0.33-1.06-0.99-1.41-1.32
		c-0.53-2.061-0.66-4.19-1.05-6.28C71.81,161.25,67.75,158.37,68.35,153.97L68.35,153.97z"/>
	<path fill="#BFA64C" d="M37.76,146.96c3.83-2.12,8.17-3.07,12.42-3.91c-0.45,0.96-1.2,1.54-2.23,1.76
		C44.63,145.81,41.28,146.97,37.76,146.96L37.76,146.96z"/>
	<path fill="#988430" d="M237.03,142.7c1.989,5.24,1.859,10.99,3.91,16.22c2.06,7.44,6.22,14.64,5.479,22.58
		c-1.02-1.66-1.97-3.43-1.89-5.44c0.02-4.29-2.271-8.029-3.32-12.079c-1.24-4.461-2.53-8.9-3.87-13.32
		C237.26,148.01,237.22,145.35,237.03,142.7L237.03,142.7z"/>
	<path fill="#E7E3DB" d="M96.29,144.42c0.59,2.94,1.08,5.92,0.92,8.94c-0.12,2.13-0.09,4.27-0.01,6.409
		c0.71,0.591,1.42,1.181,2.13,1.771c-0.28,1.05-0.57,2.11-0.83,3.17c-0.39,1.55-0.45,3.16-0.43,4.76
		c10.9,3.84,24.55,6.521,34.38-1.279c0.28,0.069,0.86,0.199,1.14,0.26c0.47,4.59-3.1,7.8-4.63,11.78
		c-7.04,2.89-15.72,2.64-21.61,7.859c-2.52-2.96-6.23-2.109-9.57-1.49c-0.52-1.6-1.05-3.189-1.48-4.81
		c-0.09-2.06-0.07-4.11-0.06-6.17c0.02-2.25,0.04-4.5,0.04-6.75c0.01-1.061,0.01-2.12,0.01-3.18c0-6.811-0.03-13.631-0.01-20.44
		L96.29,144.42L96.29,144.42z"/>
	<path fill="#F5EDB6" d="M56.18,146.21c1.25,0.07,2.49,0.27,3.73,0.43c-0.9,1.06-1.79,2.13-2.72,3.17c-2.06,1.06-4.14,2.06-6.2,3.12
		c-0.03-1.06-0.11-3.189-0.15-4.25C52.6,147.81,54.37,146.95,56.18,146.21L56.18,146.21z"/>
	<path fill="#F4ECB4" d="M56.44,150.65c1.05-0.23,2.09-0.431,3.14-0.631c0.23,2.9,0.13,5.83,0.58,8.721c0.81,2.5,2.47,4.6,3.87,6.8
		c-0.49,0.85-0.95,1.71-1.39,2.59c-1.7,0.3-3.38,0.71-5.05,1.15c-2.46-3.33-2.26-7.78-4.1-11.431c-0.42,2.54-0.91,5.08-1.32,7.631
		c-0.52-3.801-1.06-7.62-1.1-11.461C52.45,152.4,54.69,151.79,56.44,150.65L56.44,150.65z"/>
	<path fill="#39331F" d="M83.31,153.48c3.04-0.78,6.17-1.61,8.61-3.69c0.39,0.08,1.18,0.25,1.57,0.33
		c-0.39,4.01,2.5,7.83,0.45,11.729c-1.9-2.13-4.27-3.729-6.47-5.51c-1.58-0.1-3.15-0.189-4.72-0.26
		C82.89,155.43,83.17,154.13,83.31,153.48L83.31,153.48z"/>
	<path fill="#CCA847" d="M237.34,150.66c1.34,4.42,2.63,8.859,3.87,13.32c1.05,4.05,3.34,7.789,3.32,12.079
		c-0.08,2.011,0.87,3.78,1.89,5.44c-0.76,5.65,2.21,10.88,1.92,16.49c-0.07,2.069-0.31,4.14-0.42,6.22
		c-0.75-1.28-1.64-2.47-2.59-3.6c-1.09,3.37-0.37,7.529-3.12,10.159c-1.2-1.699-1.8-4.52-4.25-4.77c-3.55-0.57-6.86,1.17-9.24,3.68
		c-3.13,3.351-7.97,3.5-12.229,3.92c3.359-3.42,6.149-7.34,8.75-11.35c2.319,0.73,3.88-1.34,5.609-2.46
		c1.71-1.45,3.95-1.94,5.86-3.05c1.62-2.561,2.82-5.42,3.5-8.37c-0.55-1.94-1.46-3.75-1.9-5.72c-1,0.239-1.979,0.479-2.97,0.72
		c-0.439-0.351-1.33-1.04-1.77-1.39C236.33,171.79,237.28,161.19,237.34,150.66L237.34,150.66z"/>
	<path fill="#C1A956" d="M46.58,155.04c1.5-0.69,1.52,1.28,0.3,1.59c-1.06,0.54-2.33,1.65-3.58,1.12
		C43.25,156.2,45.43,155.61,46.58,155.04L46.58,155.04z"/>
	<path fill="#ECD592" d="M180.43,160.53c1.48-1.011,3.08-1.82,4.65-2.67c-1.09,12.43-5.42,25.67-15.96,33.239
		c-7.521,5.65-17.39,2.931-26.06,3.511c-0.1-0.37-0.29-1.12-0.38-1.49c3.01-1.17,6.05-3.08,9.419-2.44
		c3.61,0.48,7.261,0.61,10.86,0.07c-1.39-0.86-2.84-1.64-4.11-2.66c-0.68-1.2-0.43-2.729-1.109-3.92c-1.3-1.54-2.82-2.87-4.23-4.3
		c2.641-2.23,4.181-5.38,6.44-7.94c3.96-3.27,9.56-2.739,14.01-4.96C176.5,165.229,177.89,162.27,180.43,160.53L180.43,160.53z"/>
	<path fill="#D7C27C" d="M64.03,165.54c0.97-1.68,2.04-3.3,3.19-4.86c-0.32,3.16-1.98,5.9-3.74,8.45l-0.84-1
		C63.08,167.25,63.54,166.39,64.03,165.54L64.03,165.54z"/>
	<path fill="#242110" d="M72.32,163.08c8.05-2.58,16.27,0.21,23.97,2.61c0,1.06,0,2.119-0.01,3.18
		C88.34,166.79,79.85,166.52,72.32,163.08L72.32,163.08z"/>
	<path fill="#D6D6D5" d="M98.07,169.47c-0.02-1.6,0.04-3.21,0.43-4.76c3.08,3.71,7.7,6.03,12.49,6.48c7.2-0.551,14.09-5.32,21.46-3
		C122.62,175.99,108.97,173.31,98.07,169.47L98.07,169.47z"/>
	<path fill="#EED88B" d="M74.13,171.37c0.35,0.33,1.06,0.99,1.41,1.32c0.36,4.869,3.3,8.949,5.58,13.109
		c1.85,3.44,4.98,5.94,8.18,8.07c2.26,0.63,4.64,0.55,6.97,0.74c-7.08,0.489-14.17-0.431-21.23,0.29
		c-0.52,2.149-0.87,4.33-0.85,6.55c-1.27-0.78-2.54-1.561-3.82-2.34c-1.01-4.36-2.45-8.63-3.26-13.021
		c0.71-2.28,1.84-4.399,2.78-6.58c0.89-0.029,1.79-0.06,2.68-0.08C72.99,176.73,73.52,174.04,74.13,171.37L74.13,171.37z"/>
	<path fill="#DFC677" d="M75.54,172.69c3.69,2.54,6.4,6.21,10.12,8.71c1.04,0.93,2,1.939,3,2.909c2.19,1.74,4.99,2.301,7.62,3.051
		c0,2.409-0.01,4.83-0.01,7.25c-2.33-0.19-4.71-0.11-6.97-0.74c-3.2-2.13-6.33-4.63-8.18-8.07
		C78.84,181.64,75.9,177.56,75.54,172.69L75.54,172.69z"/>
	<path fill="#927D49" d="M85.66,181.4c3.57-1.851,6.91-4.131,10.58-5.78c-0.01,2.06-0.03,4.11,0.06,6.17
		c-2.66,0.42-5.76,0.19-7.64,2.52C87.66,183.34,86.7,182.33,85.66,181.4L85.66,181.4z"/>
	<path fill="#C4A859" d="M88.66,184.31c1.88-2.329,4.98-2.1,7.64-2.52c-0.02,1.85-0.02,3.71-0.02,5.57
		C93.65,186.61,90.85,186.05,88.66,184.31L88.66,184.31z"/>
	<path fill="#C0993A" d="M233.57,181.98c0.439,0.35,1.33,1.039,1.77,1.39c0.99-0.24,1.97-0.48,2.97-0.72
		c0.44,1.97,1.351,3.779,1.9,5.72c-0.68,2.95-1.88,5.81-3.5,8.37c-1.91,1.109-4.15,1.6-5.86,3.05c-1.729,1.12-3.29,3.19-5.609,2.46
		C228.95,195.93,231.66,189.05,233.57,181.98L233.57,181.98z"/>
	<path fill="#E5CB7A" d="M60.98,190.07c0.74,1.239,1.54,2.439,2.28,3.689c2.11,8.181,5.01,16.75,10.98,22.94
		c0.07,4.45-0.16,8.899,0.09,13.35c0.01,1.601,0.8,3.79,2.77,3.63c5.6,0.24,11.22,0.021,16.83,0.04c-2.18,2.88-0.59,6.3-0.53,9.511
		c0.06,3.779,2.05,7.13,2.63,10.8c-1.58,4-4.22,7.45-6.31,11.18c-2.09,0.31-4.28-0.52-6.29,0.06c-1.19,1.641-1.85,3.961-4.12,4.4
		c-10.72-6.66-20.81-14.43-29.46-23.66c3.83-7.77,7.07-16.2,6.33-25.029c-0.58-3.641,2.18-6.54,2.75-9.971
		c-0.09-2.02-1.61-3.609-2.52-5.33C59.66,201.13,60.85,195.58,60.98,190.07L60.98,190.07z"/>
	<path fill="#D2B159" d="M63.26,193.76c2.88,1.641,4.12,4.95,6.3,7.32c0.2-0.49,0.61-1.48,0.81-1.97c1.28,0.779,2.55,1.56,3.82,2.34
		c0.13,5.08,0.1,10.17,0.05,15.25C68.27,210.51,65.37,201.94,63.26,193.76L63.26,193.76z"/>
	<path fill="#BA9040" d="M245.33,200.61c0.95,1.13,1.84,2.319,2.59,3.6c0.51,5.94,1.84,11.8,1.9,17.79
		c0.149,8.08,0.27,16.16,0.649,24.23c-8.989,9.51-19.41,17.72-30.779,24.18c-4.311-3.09-9.271-0.7-13.2,1.76
		c0.729-1.439,1.819-2.61,3.04-3.64c2.41-2.011,3.35-5.25,5.87-7.16c2.6-2.34,6.08-3.67,8.13-6.59c2.069-4.471,6.59-6.9,9.31-10.891
		c2.54-3.649,6.72-7.01,6.33-11.89c-0.18-4.19,0.67-8.3,1.16-12.43c0.14-3.011,0.6-6.051,1.88-8.801
		C244.96,208.14,244.24,203.98,245.33,200.61L245.33,200.61z"/>
	<path fill="#D8C173" d="M228.72,209.68c2.38-2.51,5.69-4.25,9.24-3.68c2.45,0.25,3.05,3.07,4.25,4.77
		c-1.28,2.75-1.74,5.79-1.88,8.801c-0.49,4.13-1.34,8.239-1.16,12.43c0.39,4.88-3.79,8.24-6.33,11.89
		c-2.72,3.99-7.24,6.42-9.31,10.891c-1.45,0.01-2.9,0.029-4.351,0.05c3.65-5.58,5.94-11.87,8.84-17.83
		c0.671-0.98,0.381-2.06,0.04-3.08c-0.689-1.72,0.181-3.5,0.091-5.26c-0.301-1.811-1.061-3.5-1.66-5.22
		c-3.09-0.57-6.2-1.36-9.36-1.181c-3.93,0.71-6.649,4-10.189,5.561c-1.69,0.72-3.601,0.899-5.171,1.899
		c-3.14,2.67-3.89,7.33-7.529,9.55c-3.55,2.421-6.681,5.37-10.01,8.07c-1.961,1.83-4.82,0.47-7.181,0.86
		c-2.08,1.06-3.54,3-5.51,4.229c-2.55,0.86-5.57,0.5-7.69,2.4c-3.46,3-8.55,2.14-12.21,4.81c-4.14,2.11-6,6.78-9.959,9.11
		c-2.98,1.78-5.33,4.37-7.7,6.87c-0.64-0.79-1.28-1.57-1.91-2.351c-3.3,1.91-5.99,4.971-9.85,5.78c-1.38-1.64-2.72-3.64-5.1-3.74
		c0.39-0.8,0.77-1.6,1.13-2.409c-0.82-1.061-1.75-2.11-3.24-1.891c-3.62-0.439-7.26,0.33-10.88,0.061
		c-2.46-1.311-4.55-3.301-6.03-5.66c2.78-3.311,4.07-7.5,6.39-11.08c1.38-1.92,3.61-0.39,5.35,0.04c0.72-1.66,1.45-3.311,2.17-4.96
		c0.98,0.12,1.96,0.24,2.94,0.37c2.36-2.15,3.74-5.03,4.65-8.04c1.58-0.471,3.16-0.94,4.73-1.42c-0.02-2.62,1.18-4.87,3.07-6.62
		c13.2,0.109,26.4,0.01,39.6,0.05c15.17,0.34,30.4-4.61,42.48-13.79c2.539-1.89,4.829-4.08,7.01-6.36
		C220.75,213.18,225.59,213.03,228.72,209.68L228.72,209.68z"/>
	<path fill="#E0CD81" d="M206.94,227.82c3.54-1.561,6.26-4.851,10.189-5.561c3.16-0.18,6.271,0.61,9.36,1.181
		c0.6,1.72,1.359,3.409,1.66,5.22c0.09,1.76-0.78,3.54-0.091,5.26c0.341,1.021,0.631,2.1-0.04,3.08
		c-2.899,5.96-5.189,12.25-8.84,17.83c1.45-0.021,2.9-0.04,4.351-0.05c-2.05,2.92-5.53,4.25-8.13,6.59
		c-2.521,1.91-3.46,5.149-5.87,7.16c-1.221,1.029-2.311,2.2-3.04,3.64c-5.17,3.43-11.28,4.99-16.79,7.76
		c-0.04-1.02-0.08-2.04-0.11-3.05c-3.979,0.89-7.979,1.66-11.89,2.79c-3.36,0.92-5.42,3.99-8.391,5.59
		c-2.369,0.87-5.109,1.08-6.869,3.12c-18.17,1.5-36.621-0.32-54.061-5.67c1.95-0.62,3.9-1.28,5.82-2.02
		c0.26-2.131,1.43-3.891,2.92-5.381c2.38,0.101,3.72,2.101,5.1,3.74c3.86-0.81,6.55-3.87,9.85-5.78c0.63,0.78,1.27,1.561,1.91,2.351
		c2.37-2.5,4.72-5.09,7.7-6.87c3.96-2.33,5.82-7,9.959-9.11c3.66-2.67,8.75-1.81,12.21-4.81c2.12-1.9,5.141-1.54,7.69-2.4
		c1.97-1.229,3.43-3.17,5.51-4.229c2.36-0.391,5.22,0.97,7.181-0.86c3.329-2.7,6.46-5.649,10.01-8.07
		c3.64-2.22,4.39-6.88,7.529-9.55C203.34,228.72,205.25,228.54,206.94,227.82L206.94,227.82z"/>
	<path fill="#C2A44D" d="M93.93,233.72c1.23,0,2.46,0.011,3.69,0.021c2.85,3.35,6.53,7.069,11.23,7.069
		c3.71-0.369,1.87-4.77,1.38-7.09c5.72-0.01,11.45,0,17.17-0.02c-1.89,1.75-3.09,4-3.07,6.62c-1.57,0.479-3.15,0.949-4.73,1.42
		c-0.91,3.01-2.29,5.89-4.65,8.04c-0.98-0.13-1.96-0.25-2.94-0.37c-0.72,1.649-1.45,3.3-2.17,4.96c-1.74-0.43-3.97-1.96-5.35-0.04
		c-2.32,3.58-3.61,7.77-6.39,11.08c-0.5-1.01-0.99-2.021-1.46-3.04c-2.29,1-4.58,1.979-6.92,2.84c2.09-3.729,4.73-7.18,6.31-11.18
		c-0.58-3.67-2.57-7.021-2.63-10.8C93.34,240.02,91.75,236.6,93.93,233.72L93.93,233.72z"/>
	<path fill="#D2B159" d="M97.62,233.74c4.2-0.021,8.41-0.021,12.61-0.021c0.49,2.32,2.33,6.721-1.38,7.09
		C104.15,240.81,100.47,237.09,97.62,233.74L97.62,233.74z"/>
	<path fill="#CEB052" d="M89.72,265.21c2.34-0.86,4.63-1.84,6.92-2.84c0.47,1.02,0.96,2.03,1.46,3.04
		c1.48,2.359,3.57,4.35,6.03,5.66c3.62,0.27,7.26-0.5,10.88-0.061c1.49-0.22,2.42,0.83,3.24,1.891c-0.36,0.81-0.74,1.609-1.13,2.409
		c-1.49,1.49-2.66,3.25-2.92,5.381c-1.92,0.739-3.87,1.399-5.82,2.02c-10.11-3.35-19.84-7.729-29.07-13.04
		c2.27-0.439,2.93-2.76,4.12-4.4C85.44,264.69,87.63,265.52,89.72,265.21L89.72,265.21z"/>
	<path fill="#D2BA6B" d="M206.49,272.17c3.93-2.46,8.89-4.85,13.2-1.76c-17.41,10.13-37.131,16.55-57.25,17.97
		c1.76-2.04,4.5-2.25,6.869-3.12c2.971-1.6,5.03-4.67,8.391-5.59c3.91-1.13,7.91-1.9,11.89-2.79c0.03,1.01,0.07,2.03,0.11,3.05
		C195.21,277.16,201.32,275.6,206.49,272.17L206.49,272.17z"/>
</g>
</svg>