<svg version="1.1" id="Layer_1" xmlns="http://www.w3.org/2000/svg" xmlns:xlink="http://www.w3.org/1999/xlink" x="0px" y="0px"
	 width="32px" height="32px" viewBox="0 0 32 32" enable-background="new 0 0 32 32" xml:space="preserve">
<path style="fill:white" d="M17.471,2c0,0-6.28,0-8.373,0C5.344,2,1.811,4.844,1.811,8.138c0,3.366,2.559,6.083,6.378,6.083
	c0.266,0,0.524-0.005,0.776-0.024c-0.248,0.475-0.425,1.009-0.425,1.563c0,0.937,0.503,1.694,1.14,2.313
	c-0.481,0-0.945,0.014-1.452,0.014C3.579,18.088,0,21.049,0,24.12c0,3.024,3.923,4.916,8.573,4.916c5.301,0,8.228-3.009,8.228-6.032
	c0-2.425-0.715-3.877-2.928-5.441c-0.757-0.537-2.204-1.839-2.204-2.604c0-0.897,0.256-1.34,1.607-2.395
	c1.385-1.082,2.365-2.603,2.365-4.372c0-2.106-0.938-4.159-2.699-4.837h2.655L17.471,2L17.471,2z M14.546,22.482
	c0.066,0.281,0.103,0.569,0.103,0.863c0,2.444-1.575,4.354-6.093,4.354c-3.214,0-5.535-2.035-5.535-4.479
	c0-2.395,2.879-4.389,6.093-4.354c0.75,0.008,1.449,0.129,2.083,0.334C12.942,20.414,14.193,21.1,14.546,22.482L14.546,22.482z
	 M9.401,13.368c-2.157-0.065-4.207-2.413-4.58-5.246C4.448,5.289,5.895,3.121,8.052,3.185c2.157,0.065,4.207,2.338,4.58,5.171
	S11.557,13.433,9.401,13.368z M26,8V2h-2v6h-6v2h6v6h2v-6h6V8H26z"/>
</svg>
