<svg version="1.1" id="Layer_1" xmlns="http://www.w3.org/2000/svg" xmlns:xlink="http://www.w3.org/1999/xlink" x="0px" y="0px"
	 width="32px" height="32px" viewBox="0 0 32 32" enable-background="new 0 0 32 32" xml:space="preserve">
<path style="fill:white" d="M24.32,16c0,4.595-3.727,8.32-8.32,8.32c-4.595,0-8.32-3.726-8.32-8.32c0-0.547,0.054-1.082,0.157-1.6H2.24v11.059
	c0,2.374,1.923,4.301,4.301,4.301h18.918c2.374,0,4.301-1.925,4.301-4.301V14.4h-5.595C24.266,14.918,24.32,15.453,24.32,16z
	 M25.459,2.24H6.541c-2.376,0-4.301,1.926-4.301,4.301V11.2h6.966C10.712,9.072,13.193,7.68,16,7.68c2.807,0,5.288,1.392,6.794,3.52
	h6.966V6.541C29.76,4.167,27.834,2.24,25.459,2.24z M27.562,7.552c0,0.424-0.346,0.768-0.768,0.768h-2.302
	c-0.423,0-0.769-0.346-0.769-0.768V5.248c0-0.424,0.348-0.768,0.769-0.768h2.302c0.424,0,0.768,0.346,0.768,0.768V7.552z M21.12,16
	c0-2.829-2.293-5.12-5.12-5.12s-5.12,2.291-5.12,5.12s2.293,5.12,5.12,5.12S21.12,18.829,21.12,16z"/>
</svg>