<?xml version="1.0" encoding="utf-8"?>
<!-- Generator: Adobe Illustrator 15.1.0, SVG Export Plug-In . SVG Version: 6.00 Build 0)  -->
<!DOCTYPE svg PUBLIC "-//W3C//DTD SVG 1.1//EN" "http://www.w3.org/Graphics/SVG/1.1/DTD/svg11.dtd">
<svg version="1.1"
	 id="svg2876" sodipodi:docname="steamboat.svg" xmlns:inkscape="http://www.inkscape.org/namespaces/inkscape" xmlns:sodipodi="http://sodipodi.sourceforge.net/DTD/sodipodi-0.dtd" xmlns:dc="http://purl.org/dc/elements/1.1/" inkscape:version="0.48.2 r9819" xmlns:svg="http://www.w3.org/2000/svg" xmlns:cc="http://creativecommons.org/ns#" xmlns:rdf="http://www.w3.org/1999/02/22-rdf-syntax-ns#"
	 xmlns="http://www.w3.org/2000/svg" xmlns:xlink="http://www.w3.org/1999/xlink" x="0px" y="0px" width="100px" height="94.435px"
	 viewBox="0 2.783 100 94.435" enable-background="new 0 2.783 100 94.435" xml:space="preserve">
<sodipodi:namedview  inkscape:zoom="2.6641777" bordercolor="#666666" id="namedview2888" inkscape:pageopacity="0" inkscape:window-height="738" objecttolerance="10" inkscape:pageshadow="2" guidetolerance="10" pagecolor="#ffffff" inkscape:window-y="-8" inkscape:cx="61.286872" showgrid="false" inkscape:window-width="1280" gridtolerance="10" borderopacity="1" inkscape:window-maximized="1" inkscape:cy="46.023245" inkscape:current-layer="g3015" inkscape:window-x="-8">
	</sodipodi:namedview>
<defs>
	
	
		<inkscape:perspective  id="perspective2892" inkscape:vp_x="0 : 44.29134 : 1" sodipodi:type="inkscape:persp3d" inkscape:persp3d-origin="44.29134 : 29.52756 : 1" inkscape:vp_z="88.58268 : 44.29134 : 1" inkscape:vp_y="0 : 1000 : 0">
		</inkscape:perspective>
	
		<inkscape:perspective  id="perspective3682" inkscape:vp_x="0 : 50 : 1" sodipodi:type="inkscape:persp3d" inkscape:persp3d-origin="45 : 33.333333 : 1" inkscape:vp_z="90 : 50 : 1" inkscape:vp_y="0 : 1000 : 0">
		</inkscape:perspective>
	
		<inkscape:perspective  id="perspective3743" inkscape:vp_x="0 : 44.29134 : 1" sodipodi:type="inkscape:persp3d" inkscape:persp3d-origin="44.29134 : 29.52756 : 1" inkscape:vp_z="88.58268 : 44.29134 : 1" inkscape:vp_y="0 : 1000 : 0">
		</inkscape:perspective>
	
		<inkscape:perspective  id="perspective3769" inkscape:vp_x="0 : 44.29134 : 1" sodipodi:type="inkscape:persp3d" inkscape:persp3d-origin="44.29134 : 29.52756 : 1" inkscape:vp_z="88.58268 : 44.29134 : 1" inkscape:vp_y="0 : 1000 : 0">
		</inkscape:perspective>
</defs>
<path id="path3217" d="M82.991,66.561l12.094-0.015c2.005-1.094,1.464-3.719,1.459-5.601c-0.43-5.598-0.413-11.221-0.848-16.814
	c-0.676-9.068-0.218-15.378-1.139-23.837c2.527-1.574,4.885-3.856,5.442-6.907c-0.756-3.403-4.071-5.238-7.021-6.499
	C85.241,3.752,76.796,2.992,68.53,2.783h-0.016H68.5c-8.266,0.209-16.711,0.97-24.448,4.105c-2.951,1.261-6.267,3.096-7.022,6.5
	c0.016,0.085,0.032,0.168,0.051,0.251c4.215-0.605,8.494-0.861,12.765-0.969l0.098-0.001H50h0.056l0.098,0.001
	c8.968,0.228,17.963,1.103,26.351,4.503l0.046,0.019l0.047,0.02c4.723,2.017,9.012,4.997,10.192,10.319l0.238,1.072l-0.197,1.082
	c-0.631,3.443-2.559,6.261-5.1,8.473c0.519,6.96,0.349,13.91,0.868,20.881C82.794,61.544,82.897,64.051,82.991,66.561L82.991,66.561
	z"/>
<path id="path3215" d="M31.484,97.218l26.57-0.033c2.005-1.092,1.465-3.719,1.459-5.6c-0.43-5.599-0.412-11.221-0.848-16.815
	c-0.676-9.067-0.218-15.378-1.139-23.836c2.527-1.575,4.885-3.857,5.442-6.907c-0.756-3.403-4.071-5.239-7.021-6.499
	c-7.737-3.138-16.182-3.898-24.448-4.107l-0.015,0.001l-0.016-0.001c-8.265,0.209-16.711,0.97-24.447,4.107
	C4.072,38.788,0.755,40.624,0,44.027c0.558,3.05,2.916,5.332,5.443,6.907C4.521,59.392,4.98,65.702,4.304,74.77
	c-0.436,5.595-0.418,11.217-0.848,16.815c-0.006,1.881-0.546,4.508,1.458,5.6L31.484,97.218L31.484,97.218z"/>
<path id="path3188" d="M64.477,81.88l12.094-0.015c2.004-1.092,1.464-3.719,1.459-5.599c-0.431-5.6-0.413-11.223-0.849-16.815
	c-0.676-9.068-0.218-15.379-1.139-23.837c2.526-1.574,4.885-3.857,5.443-6.906c-0.756-3.404-4.072-5.239-7.023-6.5
	c-7.736-3.137-16.182-3.898-24.446-4.106H50h-0.016c-8.265,0.208-16.71,0.97-24.447,4.106c-2.951,1.26-6.267,3.096-7.022,6.499
	c0.015,0.084,0.033,0.168,0.05,0.252c4.216-0.605,8.494-0.861,12.766-0.969l0.098-0.002l0.056,0l0.056,0l0.097,0.002
	c8.968,0.227,17.963,1.102,26.351,4.502l0.046,0.02l0.048,0.019c4.722,2.018,9.011,4.997,10.191,10.319l0.238,1.073l-0.198,1.081
	c-0.63,3.442-2.56,6.261-5.1,8.474c0.52,6.96,0.35,13.909,0.868,20.879C64.278,76.861,64.384,79.37,64.477,81.88L64.477,81.88z"/>
</svg>
