
<svg version="1.1"
	 id="svg2876" class="flatbread" xmlns:inkscape="http://www.inkscape.org/namespaces/inkscape" xmlns:sodipodi="http://sodipodi.sourceforge.net/DTD/sodipodi-0.dtd" xmlns:dc="http://purl.org/dc/elements/1.1/" xmlns:svg="http://www.w3.org/2000/svg" xmlns:cc="http://creativecommons.org/ns#" xmlns:rdf="http://www.w3.org/1999/02/22-rdf-syntax-ns#" inkscape:version="0.48.2 r9819" sodipodi:docname="steamboat.svg"
	 xmlns="http://www.w3.org/2000/svg" xmlns:xlink="http://www.w3.org/1999/xlink" x="0px" y="0px" width="100px" height="94.436px"
	 viewBox="0 0 100 94.436" enable-background="new 0 0 100 94.436" xml:space="preserve">
<sodipodi:namedview  inkscape:cy="46.023245" borderopacity="1" gridtolerance="10" showgrid="false" inkscape:cx="61.286872" pagecolor="#ffffff" guidetolerance="10" objecttolerance="10" id="namedview2888" bordercolor="#666666" inkscape:zoom="2.6641777" inkscape:pageopacity="0" inkscape:window-x="-8" inkscape:current-layer="g3015" inkscape:window-maximized="1" inkscape:window-width="1280" inkscape:window-y="-8" inkscape:pageshadow="2" inkscape:window-height="738">
	</sodipodi:namedview>
<defs>
	
	
		<inkscape:perspective  inkscape:vp_y="0 : 1000 : 0" inkscape:vp_z="88.58268 : 44.29134 : 1" sodipodi:type="inkscape:persp3d" inkscape:vp_x="0 : 44.29134 : 1" id="perspective2892" inkscape:persp3d-origin="44.29134 : 29.52756 : 1">
		</inkscape:perspective>
	
		<inkscape:perspective  inkscape:vp_y="0 : 1000 : 0" inkscape:vp_z="90 : 50 : 1" sodipodi:type="inkscape:persp3d" inkscape:vp_x="0 : 50 : 1" id="perspective3682" inkscape:persp3d-origin="45 : 33.333333 : 1">
		</inkscape:perspective>
	
		<inkscape:perspective  inkscape:vp_y="0 : 1000 : 0" inkscape:vp_z="88.58268 : 44.29134 : 1" sodipodi:type="inkscape:persp3d" inkscape:vp_x="0 : 44.29134 : 1" id="perspective3743" inkscape:persp3d-origin="44.29134 : 29.52756 : 1">
		</inkscape:perspective>
	
		<inkscape:perspective  inkscape:vp_y="0 : 1000 : 0" inkscape:vp_z="88.58268 : 44.29134 : 1" sodipodi:type="inkscape:persp3d" inkscape:vp_x="0 : 44.29134 : 1" id="perspective3769" inkscape:persp3d-origin="44.29134 : 29.52756 : 1">
		</inkscape:perspective>
</defs>
<path id="path3215" d="M49.984,97.218l42.184-0.049c3.182-1.662,2.325-5.656,2.316-8.517c-0.684-8.514-0.654-17.063-1.348-25.569
	c-1.074-13.789-0.346-23.385-1.81-36.247c4.013-2.396,7.757-5.866,8.641-10.504c-1.2-5.175-6.464-7.967-11.146-9.883
	C76.538,1.677,63.131,0.521,50.008,0.203l-0.024,0.001l-0.025-0.001C36.837,0.521,23.428,1.679,11.146,6.449
	C6.464,8.365,1.198,11.156,0,16.332c0.886,4.638,4.629,8.108,8.641,10.504C7.178,39.698,7.906,49.293,6.833,63.083
	C6.141,71.591,6.17,80.139,5.487,88.652c-0.009,2.86-0.867,6.854,2.315,8.517L49.984,97.218L49.984,97.218z"/>
</svg>
