<svg version="1.1" id="Layer_1" xmlns="http://www.w3.org/2000/svg" xmlns:xlink="http://www.w3.org/1999/xlink" x="0px" y="0px"
	 width="486.88px" height="233.601px" viewBox="0 0 486.88 233.601" enable-background="new 0 0 486.88 233.601"
	 xml:space="preserve">
<g>
	<g>
		<path fill="#4A2810" d="M255.612,180.003c-2.666,0-2.522,3.791-2.522,3.791v30.394c0,0-0.144,3.79,2.522,3.79
			c2.668,0,2.529-3.79,2.529-3.79v-30.394C258.141,183.794,258.28,180.003,255.612,180.003z"/>
		<path fill="#4A2810" d="M63.139,180.776v36.43c5.335,0,5.688-1.333,5.615-18.248C68.826,182.109,68.474,180.776,63.139,180.776z"
			/>
		<polygon fill="#4A2810" points="334.651,188.638 334.232,188.638 334.02,189.974 331.843,206.257 337.039,206.257 
			334.862,189.974 		"/>
		<path fill="#4A2810" d="M94.517,180.706v15.304c2.106,0,5.616-0.282,5.616-7.651C100.132,180.985,96.623,180.706,94.517,180.706z"
			/>
		<path fill="#4A2810" d="M460.423,176.892v-0.002h-16.751v-1.482c0-7.213-5.849-11.027-13.061-11.027H50.744
			c-7.214,0-13.061,3.814-13.061,11.027v1.482H22.021v0.002C9.852,176.936,0,186.812,0,198.99c0,12.177,9.852,22.054,22.021,22.097
			v0.002h15.663v1.484c0,7.213,5.847,11.027,13.061,11.027h379.868c7.212,0,13.061-3.814,13.061-11.027v-1.484h16.751v-0.002
			c12.168-0.043,22.021-9.919,22.021-22.097C482.445,186.812,472.591,176.935,460.423,176.892z M28.293,201.521l3.834,11.758
			l-10.012-7.258l-9.998,7.281l3.808-11.764l-10.012-7.256l12.366-0.017l3.812-11.765l3.833,11.757l12.363-0.013L28.293,201.521z
			 M61.525,224.788h-5.966v-51.592h5.966c14.039,0.069,15.092,5.615,15.092,25.831C76.617,219.173,75.564,224.72,61.525,224.788z
			 M100.483,224.788l-3.931-21.76h-2.035v21.76h-7.581v-51.592h7.581c8.985,0,12.915,5.192,12.915,14.881
			c0,5.123-1.333,9.758-4.211,11.722l4.844,24.989H100.483z M125.122,224.788h-7.581v-51.592h7.581V224.788z M158.114,224.788h-6.74
			l-7.37-26.885l-0.632-2.386h-0.421v2.386v26.885h-6.949v-51.592h6.74l7.37,26.885l0.633,2.385h0.42v-2.385v-26.885h6.949V224.788z
			 M184.437,224.788l-5.265-22.463l-0.21-1.051h-0.211l-0.421,1.051l-1.754,4.211v18.252h-7.582c0-16.146,0-51.592,0-51.592h7.582
			v17.196v0.843h0.279l0.352-0.843l6.317-17.196h7.371l-6.949,16.986l7.861,34.605H184.437z M229.572,196.431
			c3.51,5.263,7.091,10.388,7.091,15.934c0,6.879-2.246,12.986-10.53,12.986c-9.757,0-11.021-7.373-11.021-15.021l7.441-0.703
			c0,4.282,0.421,8.773,3.58,8.773c2.246,0,3.088-2.457,3.088-5.686c0-3.439-3.23-7.578-6.106-11.933
			c-3.581-5.264-6.95-10.528-6.95-16.074c0-5.616,2.737-11.935,9.898-12.073c9.125-0.211,10.599,7.932,10.599,13.688l-7.441,0.703
			c0-3.441-0.49-7.441-3.019-7.441c-1.965,0.07-2.596,2.177-2.596,5.124C223.606,188.217,226.625,192.148,229.572,196.431z
			 M265.722,214.188c0,0,0.07,11.163-10.11,11.163c-10.176,0-10.105-11.163-10.105-11.163v-30.394c0,0-0.07-11.16,10.105-11.16
			c10.181,0,10.11,11.16,10.11,11.16V214.188z M295.832,190.886h-7.087v-7.092c0,0,0.281-3.791-2.878-3.791
			c-2.67,0-2.67,3.791-2.67,3.791v30.394c0,0,0,3.79,2.67,3.79c3.159,0,2.878-3.79,2.878-3.79v-7.087h7.087v7.087
			c0,0,0.072,11.163-10.105,11.163c-10.181,0-10.108-11.163-10.108-11.163v-30.394c0,0-0.072-11.16,10.108-11.16
			c10.178,0,10.105,11.16,10.105,11.16V190.886z M313.245,224.788h-7.583v-51.592h7.583V224.788z M339.495,224.788l-1.401-10.529
			h-7.302l-1.403,10.529h-7.37l7.791-51.592h9.267l7.791,51.592H339.495z M373.258,224.788H355.64v-51.592h7.58v44.573h10.038
			V224.788z M399.232,224.788h-17.619v-51.592h7.581v44.573h10.038V224.788z M419.166,202.817v21.971h-7.583v-21.971l-7.719-29.621
			h7.44l3.79,16.494l0.213,0.492h0.138l0.211-0.492l3.79-16.494h7.44L419.166,202.817z M470.326,213.302l-9.998-7.281l-10.01,7.258
			l3.833-11.758l-9.994-7.275l12.364,0.013l3.833-11.757l3.812,11.765l12.365,0.017l-10.012,7.256L470.326,213.302z"/>
	</g>
	<g>
		<g>
			<path fill="#4A2810" d="M59.844,2v116.147c0,0,0.198,31.623-28.641,31.623c-28.836,0-28.638-31.623-28.638-31.623V2h21.479
				v116.147c0,0-0.397,10.74,7.159,10.74c7.559,0,7.161-10.74,7.161-10.74V2H59.844z"/>
			<path fill="#4A2810" d="M98.233,72.006l-1.787-6.761h-1.195v6.761v76.172H75.563V2h19.092l20.884,76.172l1.787,6.761h1.194
				v-6.761V2h19.689v146.178h-19.093L98.233,72.006z"/>
			<path fill="#4A2810" d="M146.568,24.076V2h62.05v22.076h-20.284v124.102h-21.479V24.076H146.568z"/>
			<path fill="#4A2810" d="M206.836,148.178L228.912,2h26.255l22.075,146.178h-20.884l-3.978-29.831h-20.683l-3.978,29.831H206.836z
				 M243.232,49.533l-0.596-3.779h-1.194l-0.596,3.779l-6.166,46.14h14.718L243.232,49.533z"/>
			<path fill="#4A2810" d="M287.192,2c0,0,20.482,0,21.479,0c18.695,0,37.789,10.143,37.789,43.754s-19.094,43.953-37.789,43.953
				v58.471h-21.479V2z M308.67,67.83c13.523,0,16.108-4.971,16.108-21.28c0-16.308-2.585-22.672-16.108-22.672V67.83z"/>
			<path fill="#4A2810" d="M357.204,2c0,0,20.483,0,21.479,0c18.696,0,37.789,10.143,37.789,43.754s-19.093,43.953-37.789,43.953
				v58.471h-21.479V2z M378.682,67.83c13.523,0,16.108-4.971,16.108-21.28c0-16.308-2.585-22.672-16.108-22.672V67.83z"/>
			<path fill="#4A2810" d="M444.122,148.178h-16.905V2h16.905c39.773,0.198,42.759,15.91,42.759,73.188
				C486.88,132.268,483.895,147.979,444.122,148.178z M448.695,126.7c15.115,0,16.108-3.78,15.91-51.71
				c0.198-47.732-0.795-51.511-15.91-51.511V126.7z"/>
		</g>
		<g>
			<linearGradient id="SVGID_1_" gradientUnits="userSpaceOnUse" x1="29.2051" y1="147.7705" x2="29.2051" y2="4.882812e-04">
				<stop  offset="0" style="stop-color:#D29829"/>
				<stop  offset="0.4417" style="stop-color:#F7B219"/>
				<stop  offset="0.4969" style="stop-color:#F9BE27"/>
				<stop  offset="1" style="stop-color:#FFDE00"/>
			</linearGradient>
			<path fill="url(#SVGID_1_)" d="M57.844,0v116.147c0,0,0.198,31.623-28.641,31.623c-28.836,0-28.638-31.623-28.638-31.623V0
				h21.479v116.147c0,0-0.397,10.74,7.159,10.74c7.559,0,7.161-10.74,7.161-10.74V0H57.844z"/>
			<linearGradient id="SVGID_2_" gradientUnits="userSpaceOnUse" x1="104.8867" y1="146.1777" x2="104.8867" y2="4.882812e-04">
				<stop  offset="0" style="stop-color:#D29829"/>
				<stop  offset="0.4417" style="stop-color:#F7B219"/>
				<stop  offset="0.4969" style="stop-color:#F9BE27"/>
				<stop  offset="1" style="stop-color:#FFDE00"/>
			</linearGradient>
			<path fill="url(#SVGID_2_)" d="M96.233,70.006l-1.787-6.761h-1.195v6.761v76.172H73.563V0h19.092l20.884,76.172l1.787,6.761
				h1.194v-6.761V0h19.689v146.178h-19.093L96.233,70.006z"/>
			<linearGradient id="SVGID_3_" gradientUnits="userSpaceOnUse" x1="175.5938" y1="146.1777" x2="175.5938" y2="4.882812e-04">
				<stop  offset="0" style="stop-color:#D29829"/>
				<stop  offset="0.4417" style="stop-color:#F7B219"/>
				<stop  offset="0.4969" style="stop-color:#F9BE27"/>
				<stop  offset="1" style="stop-color:#FFDE00"/>
			</linearGradient>
			<path fill="url(#SVGID_3_)" d="M144.568,22.076V0h62.05v22.076h-20.284v124.102h-21.479V22.076H144.568z"/>
			<linearGradient id="SVGID_4_" gradientUnits="userSpaceOnUse" x1="240.0391" y1="146.1777" x2="240.0391" y2="4.882812e-04">
				<stop  offset="0" style="stop-color:#D29829"/>
				<stop  offset="0.4417" style="stop-color:#F7B219"/>
				<stop  offset="0.4969" style="stop-color:#F9BE27"/>
				<stop  offset="1" style="stop-color:#FFDE00"/>
			</linearGradient>
			<path fill="url(#SVGID_4_)" d="M204.836,146.178L226.912,0h26.255l22.075,146.178h-20.884l-3.978-29.831h-20.683l-3.978,29.831
				H204.836z M241.231,47.533l-0.596-3.779h-1.194l-0.596,3.779l-6.166,46.14h14.718L241.231,47.533z"/>
			<linearGradient id="SVGID_5_" gradientUnits="userSpaceOnUse" x1="314.8257" y1="146.1777" x2="314.8257" y2="4.882812e-04">
				<stop  offset="0" style="stop-color:#D29829"/>
				<stop  offset="0.4417" style="stop-color:#F7B219"/>
				<stop  offset="0.4969" style="stop-color:#F9BE27"/>
				<stop  offset="1" style="stop-color:#FFDE00"/>
			</linearGradient>
			<path fill="url(#SVGID_5_)" d="M285.192,0c0,0,20.482,0,21.479,0c18.695,0,37.789,10.143,37.789,43.754
				s-19.094,43.953-37.789,43.953v58.471h-21.479V0z M306.67,65.83c13.523,0,16.108-4.971,16.108-21.28
				c0-16.308-2.585-22.672-16.108-22.672V65.83z"/>
			<linearGradient id="SVGID_6_" gradientUnits="userSpaceOnUse" x1="384.8374" y1="146.1777" x2="384.8374" y2="4.882812e-04">
				<stop  offset="0" style="stop-color:#D29829"/>
				<stop  offset="0.4417" style="stop-color:#F7B219"/>
				<stop  offset="0.4969" style="stop-color:#F9BE27"/>
				<stop  offset="1" style="stop-color:#FFDE00"/>
			</linearGradient>
			<path fill="url(#SVGID_6_)" d="M355.204,0c0,0,20.483,0,21.479,0c18.696,0,37.789,10.143,37.789,43.754
				s-19.093,43.953-37.789,43.953v58.471h-21.479V0z M376.682,65.83c13.523,0,16.108-4.971,16.108-21.28
				c0-16.308-2.585-22.672-16.108-22.672V65.83z"/>
			<linearGradient id="SVGID_7_" gradientUnits="userSpaceOnUse" x1="455.0483" y1="146.1777" x2="455.0483" y2="4.882812e-04">
				<stop  offset="0" style="stop-color:#D29829"/>
				<stop  offset="0.4417" style="stop-color:#F7B219"/>
				<stop  offset="0.4969" style="stop-color:#F9BE27"/>
				<stop  offset="1" style="stop-color:#FFDE00"/>
			</linearGradient>
			<path fill="url(#SVGID_7_)" d="M442.122,146.178h-16.905V0h16.905c39.773,0.198,42.759,15.91,42.759,73.188
				C484.88,130.268,481.895,145.979,442.122,146.178z M446.695,124.7c15.115,0,16.108-3.78,15.91-51.71
				c0.198-47.732-0.795-51.511-15.91-51.511V124.7z"/>
		</g>
	</g>
</g>
</svg>
