<?xml version="1.0" encoding="utf-8"?>
<!-- Generator: Adobe Illustrator 16.0.0, SVG Export Plug-In . SVG Version: 6.00 Build 0)  -->
<!DOCTYPE svg PUBLIC "-//W3C//DTD SVG 1.1//EN" "http://www.w3.org/Graphics/SVG/1.1/DTD/svg11.dtd">
<svg version="1.1" id="Layer_1" xmlns="http://www.w3.org/2000/svg" xmlns:xlink="http://www.w3.org/1999/xlink" x="0px" y="0px"
	 width="49px" height="100px" viewBox="24.502 0 49 100" enable-background="new 24.502 0 49 100" xml:space="preserve">
<path d="M46.248,97.137l-1.357-13.664c0-1.257,1.602-0.144,3.623-0.144l0,0c2.006,0,3.627-1.113,3.627,0.144l0,0l-1.137,13.326
	C51.004,99.709,46.248,98.523,46.248,97.137z"/>
<path d="M40.431,52.654c-9.954-4.499-9.144-11.582-9.144-11.582c-1.256,2.5,1.416,24.309,11.79,24.309
	C47.719,65.381,51.62,57.68,40.431,52.654z"/>
<path d="M40.431,37.244c-9.954-4.485-9.144-11.568-9.144-11.568c-1.256,2.494,1.416,24.31,11.79,24.31
	C47.719,49.985,51.62,42.283,40.431,37.244z"/>
<path d="M40.431,22.297c-9.954-4.466-9.144-11.562-9.144-11.562c-1.256,2.5,1.416,24.296,11.79,24.296
	C47.719,35.031,51.62,27.349,40.431,22.297z"/>
<path d="M54.232,65.381c10.375,0,13.033-21.809,11.791-24.309c0,0,0.804,7.083-9.155,11.582
	C45.691,57.68,49.579,65.381,54.232,65.381z"/>
<path d="M40.431,68.434c-9.954-4.498-9.144-11.58-9.144-11.58c-1.256,2.5,1.416,24.31,11.79,24.31
	C47.719,81.162,51.62,73.46,40.431,68.434z"/>
<path d="M54.232,81.162c10.375,0,13.033-21.809,11.791-24.309c0,0,0.804,7.082-9.155,11.58
	C45.691,73.46,49.579,81.162,54.232,81.162z"/>
<path d="M54.232,49.985c10.375,0,13.033-21.815,11.791-24.311c0,0,0.804,7.083-9.155,11.568
	C45.691,42.283,49.579,49.985,54.232,49.985z"/>
<path d="M54.232,35.031c10.375,0,13.033-21.796,11.791-24.296c0,0,0.804,7.096-9.155,11.562
	C45.691,27.349,49.579,35.031,54.232,35.031z"/>
<path d="M49.375,23.462C60.381,23.462,48.771,0,48.771,0C47.371,2.207,38.374,23.462,49.375,23.462z"/>
</svg>
